<?xml version='1.0' encoding='utf-8'?>
<!DOCTYPE svg PUBLIC '-//W3C//DTD SVG 1.1//EN' 'http://www.w3.org/Graphics/SVG/1.1/DTD/svg11.dtd'>
<!-- Uploaded to: SVG Repo, www.svgrepo.com, Generator: SVG Repo Mixer Tools -->
<svg fill="#000000" height="40px" width="40px" version="1.1" xmlns="http://www.w3.org/2000/svg" viewBox="0 0 512 512" xmlns:xlink="http://www.w3.org/1999/xlink" enable-background="new 0 0 512 512">
  <g>
    <path d="m501,260.1c0-33.4-20.6-64.1-58.5-88.1 10.8-48.1 1-106.4-30.2-128.8-31.2-22.5-77-18.7-129.1,10.6-6.1,3.4-12.2,7.2-18.3,11.2-5.7-4.6-11.4-8.8-17.2-12.8-49.1-33.9-94.5-41.8-127.6-22.3-33,19.5-48,63-42.1,122.4 0.4,4.5 1,9.1 1.7,13.7-44.4,24.7-68.7,57.9-68.7,94.1 0,33.4 20.6,64.1 58.5,88.1-0.2,1-22.2,88.5 30.2,128.8 30.5,23.4 77,18.7 129.1-10.6 6.1-3.4 12.2-7.2 18.3-11.2 5.7,4.6 11.4,8.8 17.2,12.8 49.1,33.9 94.5,41.8 127.6,22.3s48.1-63 42.2-122.4c-0.4-4.5-1-9.1-1.7-13.7 44.3-24.7 68.6-57.8 68.6-94.1zm-115.4,70.9c-6.6,2.6-13.5,5-20.6,7.1 5.6-7.8 11-15.8 16.2-23.7 1.6,5.5 3.1,11.1 4.4,16.6zm-82.7,19.5c-15.2,1.7-82.2,1.5-99-0.6-9.8-13.4-47.2-77.3-54.9-94.7 9.2-16.6 50.1-74.2 60-85.5 15.2-1.7 82.2-1.5 99,0.6 9.8,13.4 47.2,77.3 54.9,94.7-9.2,16.6-50.1,74.2-60,85.5zm-62,43.4c5,0.2 17.4,0.2 18.5,0.2-3.3,2.9-6.6,5.6-10,8.3-2.8-2.8-5.6-5.6-8.5-8.5zm-114.4-91.2c4.5,8.5 9.2,17 14.1,25.5 1.9,3.3 3.9,6.5 5.9,9.7-10.1-3.1-19.7-6.6-28.8-10.5 2.5-8.1 5.4-16.4 8.8-24.7zm-.1-113.4c6.6-2.6 13.5-5 20.6-7.1-5.6,7.8-11,15.8-16.2,23.7-1.6-5.6-3.1-11.1-4.4-16.6zm144.7-62.9c-5-0.2-17.4-0.2-18.5-0.2 3.3-2.9 6.6-5.6 10-8.3 2.8,2.7 5.6,5.6 8.5,8.5zm94.4,55.9c10.1,3.1 19.7,6.6 28.8,10.5-2.5,8.1-5.4,16.3-8.7,24.7-4.5-8.5-18.1-31.9-20.1-35.2zm20.6-102.8c16,11.5 22.2,37.8 17.4,72.9-22.1-8.9-46.7-15.7-73-20.1-10.8-13.8-22.1-26.6-33.7-38.3 37.7-25.4 71.6-27.3 89.3-14.5zm-243.2-11.1c18.8-11.1 52.2-4.2 87.5,22.5-14.3,12-28.3,25.5-41.8,40.2-24.6,3.7-47.9,9.4-69.1,17-3.5-39.9 5-68.9 23.4-79.7zm-90.9,191.7c0-17.8 13.2-36.1 36.8-51.7 4.1,14.7 9.1,29.7 15,44.8-9,17.9-16.6,35.7-22.7,53.2-18.8-14.3-29.1-30.5-29.1-46.3zm73.9,180.7c-16-11.5-22.2-37.8-17.4-72.9 22.1,8.9 46.7,15.7 73,20.1 10.8,13.8 22.1,26.6 33.7,38.3-27.2,20.5-71.6,27.2-89.3,14.5zm243.2,11.1c-18.8,11.1-65.3-3.9-87.5-22.5 14.3-12 28.3-25.5 41.8-40.2 24.6-3.7 47.9-9.4 69.1-17 3.5,39.8-5,68.8-23.4,79.7zm54.1-140.1c-4.1-14.7-9.1-29.7-15-44.8 9-17.9 16.6-35.7 22.7-53.2 18.8,14.4 29.1,30.5 29.1,46.3 0,17.8-13.2,36.1-36.8,51.7z"/>
  </g>
</svg>